<?xml version="1.0" encoding="utf-8"?>
<!-- Generator: Adobe Illustrator 15.0.0, SVG Export Plug-In . SVG Version: 6.00 Build 0)  -->
<!DOCTYPE svg PUBLIC "-//W3C//DTD SVG 1.1//EN" "http://www.w3.org/Graphics/SVG/1.1/DTD/svg11.dtd">
<svg version="1.1" id="Ebene_1" xmlns="http://www.w3.org/2000/svg" xmlns:xlink="http://www.w3.org/1999/xlink" x="0px" y="0px"
	 width="48px" height="40px" viewBox="-6 -6 60 52" enable-background="new 0 0 48 40" xml:space="preserve">
<g>
	<circle fill="#FFFFFF" cx="13.293" cy="34.293" r="2.707"/>
	<circle fill="#FFFFFF" cx="31.706" cy="34.293" r="2.707"/>
	<path fill="#FFFFFF" d="M42.869,4.524h-5.531l-1.059,4.504H5.458l5.13,20h23.86l4.321-18.263c0-0.001,0-0.001,0-0.002l0.006-0.022
		l0.432-1.711h-0.029l0.396-1.684h3.296c0.778,0,1.409-0.631,1.409-1.41S43.648,4.524,42.869,4.524z M34.182,18H28v-6h7.588
		L34.182,18z M19,18v-6h6v6H19z M25,21v5h-6v-5H25z M16,12v6h-5.518l-1.406-6H16z M11.193,21H16v5h-3.401L11.193,21z M28,26v-5
		h5.471l-1.406,5H28z"/>
</g>
</svg>
