<?xml version="1.0" encoding="utf-8"?>
<!-- Generator: Adobe Illustrator 15.0.2, SVG Export Plug-In . SVG Version: 6.00 Build 0)  -->
<!DOCTYPE svg PUBLIC "-//W3C//DTD SVG 1.1//EN" "http://www.w3.org/Graphics/SVG/1.1/DTD/svg11.dtd">
<svg version="1.1" xmlns="http://www.w3.org/2000/svg" xmlns:xlink="http://www.w3.org/1999/xlink" x="0px" y="0px" width="48px"
	 height="40px" viewBox="0 0 48 40" enable-background="new 0 0 48 40" xml:space="preserve">
<g id="Ebene_2" display="none">
</g>
<g id="Ebene_1">
	<g id="all_devices">
		<path fill="#FFFFFF" d="M42,11c0-1.104-0.896-2-2-2H28c-1.104,0-2,0.896-2,2v24c0,1.104,0.896,2,2,2h12c1.104,0,2-0.896,2-2V11z
			 M35.667,36h-4c-0.552,0-1-0.447-1-1s0.448-1,1-1h4c0.554,0,1,0.447,1,1S36.221,36,35.667,36z M40,33H28V13h12V33z M36,12h-4v-1h4
			V12z"/>
		<path fill="#FFFFFF" d="M23.688,29h-4c-0.553,0-1-0.447-1-1s0.447-1,1-1h4c0.553,0,1,0.447,1,1S24.24,29,23.688,29z M38,8V6
			c0-1.104-0.896-2-2-2H8C6.896,4,6,4.896,6,6v22c0,1.104,0.896,2,2,2h17v-4H8V6h28v2H38z"/>
	</g>
	<g id="Ebene_1_1_">
	</g>
	<text transform="matrix(1 0 0 1 31.75 25.333)" fill="#FFFFFF" font-family="'MyriadPro-Regular'" font-size="12">?</text>
</g>
</svg>
